# xmcd
#
# Track frame offsets: 
#        150
#        19677
#        33846
#        51876
#        67421
#        84918
#        99473
#        118338
#        124361
#        141784
#        164451
#        181882
#        204470
#        219232
#        235871
#        253755
#        270669
#        294913
#        313277
#
# Disc length: 4366 seconds
#
# Revision: 1
# Processed by: cddbd v1.5.2PL0 Copyright (c) Steve Scherf et al.
# Submitted via: ExactAudioCopyFreeDBPlugin 1.0
#
DISCID=1b110c13
DTITLE=K.I.Z. - Hahnenkampf
DYEAR=2007
DGENRE=Rap
TTITLE0=Geld essen (Ausgestopfte Rapper)
TTITLE1=Klassenfahrt
TTITLE2=Spasst
TTITLE3=Böhses Mädchen feat. Massimo
TTITLE4=Hahnenkampf
TTITLE5=Lass uns feiern RMX feat. Aret
TTITLE6=11. Plage
TTITLE7=Whirlpool Skit
TTITLE8=Wenn es brennt
TTITLE9=Pauch It feat. Massimo
TTITLE10=Der Schöne und das Biest
TTITLE11=Walpurgisnacht
TTITLE12=Schwarz, Rot, Geld feat. MC Motherfucker
TTITLE13=Ellenbogengesellschaft (Pogen)
TTITLE14=Herbstzeitblätter
TTITLE15=Seekuh
TTITLE16=Neuruppin feat. Kuba and Cannibal Rob
TTITLE17=Der durch die Tür Geher
TTITLE18=Klassenfahrt (Flashgordon RMX)
EXTD=YEAR: 2007
EXTT0=
EXTT1=
EXTT2=
EXTT3=
EXTT4=
EXTT5=
EXTT6=
EXTT7=
EXTT8=
EXTT9=
EXTT10=
EXTT11=
EXTT12=
EXTT13=
EXTT14=
EXTT15=
EXTT16=
EXTT17=
EXTT18=
PLAYORDER=
